HIERARCHY
ROOT Pelvis
{
	OFFSET 0.000000 0.000000 0.000000
	CHANNELS 6 Xposition Yposition Zposition Xrotation Yrotation Zrotation
	JOINT LeftUpLeg_virtual
	{
		OFFSET 0.000000 0.000000 0.000000
		CHANNELS 3 Xrotation Yrotation Zrotation
		JOINT LeftUpLeg
		{
			OFFSET 18.735201 -5.666702 -4.541200
			CHANNELS 3 Xrotation Yrotation Zrotation
			JOINT LeftLeg
			{
				OFFSET -0.021200 -31.938179 0.493100
				CHANNELS 3 Xrotation Yrotation Zrotation
				JOINT LeftFoot
				{
					OFFSET 0.021200 -31.938179 -4.336299
					CHANNELS 3 Xrotation Yrotation Zrotation
					JOINT LeftToeBase
					{
						OFFSET 0.943001 -26.722000 15.023500
						CHANNELS 3 Xrotation Yrotation Zrotation
						End Site
						{
							OFFSET 0 0 0
						}
					}
				}
			}
		}
	}
	JOINT RightUpLeg_virtual
	{
		OFFSET 0.000000 0.000000 0.000000
		CHANNELS 3 Xrotation Yrotation Zrotation
		JOINT RightUpLeg
		{
			OFFSET -18.735201 -5.666702 -4.541200
			CHANNELS 3 Xrotation Yrotation Zrotation
			JOINT RightLeg
			{
				OFFSET 0.018946 -31.938133 0.493100
				CHANNELS 3 Xrotation Yrotation Zrotation
				JOINT RightFoot
				{
					OFFSET -0.018946 -31.938126 -4.336299
					CHANNELS 3 Xrotation Yrotation Zrotation
					JOINT RightToeBase
					{
						OFFSET -0.943001 -26.722004 15.023500
						CHANNELS 3 Xrotation Yrotation Zrotation
						End Site
						{
							OFFSET 0 0 0
						}
					}
				}
			}
		}
	}
	JOINT Hips_virtual
	{
		OFFSET 0.000000 0.000000 0.000000
		CHANNELS 3 Xrotation Yrotation Zrotation
		JOINT Hips
		{
			OFFSET -0.000000 -0.000000 -0.000000
			CHANNELS 3 Xrotation Yrotation Zrotation
			JOINT Spine
			{
				OFFSET 0.000000 10.199997 -0.299500
				CHANNELS 3 Xrotation Yrotation Zrotation
				JOINT Spine1
				{
					OFFSET 0.000000 11.900002 -1.516600
					CHANNELS 3 Xrotation Yrotation Zrotation
					JOINT Spine2
					{
						OFFSET 0.000000 13.600006 -2.842500
						CHANNELS 3 Xrotation Yrotation Zrotation
						JOINT Neck_virtual
						{
							OFFSET 0.000000 0.000000 0.000000
							CHANNELS 3 Xrotation Yrotation Zrotation
							JOINT Neck
							{
								OFFSET 0.000000 9.624100 -2.890100
								CHANNELS 3 Xrotation Yrotation Zrotation
								JOINT Head
								{
									OFFSET 0.000000 14.068802 -1.351900
									CHANNELS 3 Xrotation Yrotation Zrotation
									End Site
									{
										OFFSET 0 0 0
									}
								}
							}
						}
						JOINT LeftShoulder_virtual
						{
							OFFSET 0.000000 0.000000 0.000000
							CHANNELS 3 Xrotation Yrotation Zrotation
							JOINT LeftShoulder
							{
								OFFSET 15.263000 10.923401 -0.547700
								CHANNELS 3 Xrotation Yrotation Zrotation
								JOINT LeftArm
								{
									OFFSET 25.438599 -2.830597 -13.032500
									CHANNELS 3 Xrotation Yrotation Zrotation
									JOINT LeftForeArm
									{
										OFFSET 29.960503 0.000000 0.000000
										CHANNELS 3 Xrotation Yrotation Zrotation
										JOINT LeftHand
										{
											OFFSET 27.849251 0.000000 0.000000
											CHANNELS 3 Xrotation Yrotation Zrotation
											End Site
											{
												OFFSET 0 0 0
											}
										}
									}
								}
							}
						}
						JOINT RightShoulder_virtual
						{
							OFFSET 0.000000 0.000000 0.000000
							CHANNELS 3 Xrotation Yrotation Zrotation
							JOINT RightShoulder
							{
								OFFSET -15.263000 10.923401 -0.547700
								CHANNELS 3 Xrotation Yrotation Zrotation
								JOINT RightArm
								{
									OFFSET -25.438599 -2.830597 -13.032500
									CHANNELS 3 Xrotation Yrotation Zrotation
									JOINT RightForeArm
									{
										OFFSET -29.960503 0.000000 0.000000
										CHANNELS 3 Xrotation Yrotation Zrotation
										JOINT RightHand
										{
											OFFSET -27.849251 0.000000 0.000000
											CHANNELS 3 Xrotation Yrotation Zrotation
											End Site
											{
												OFFSET 0 0 0
											}
										}
									}
								}
							}
						}
					}
				}
			}
		}
	}
}
MOTION
Frames: 9
Frame Time: 0.03333333
0.824291 88.655266 0.165627 0.000000 0.000000 0.000000 1.513453 -9.974705 -1.933072 -42.237050 2.291392 7.427437 35.232438 -0.597177 3.712154 5.548961 2.423264 -6.247073 0.000000 0.000000 0.000000 1.285006 -8.821352 -2.316243 -11.383706 -13.382042 -13.158238 30.873507 -10.070514 2.849938 -19.901663 -4.505260 16.156030 0.000000 0.000000 0.000000 1.400440 -9.646189 -1.874659 -0.202905 0.122653 -0.821843 22.104005 5.496602 1.146260 3.555493 1.405160 0.182492 0.000000 0.000000 0.000000 1.710387 1.984497 -0.536091 -0.823386 2.135351 0.269522 0.000000 0.000000 0.000000 2.573298 1.869677 -0.569903 1.110862 -34.061071 5.755090 -26.470548 -18.127435 -68.963061 -0.789018 -46.027149 -10.038600 0.000000 0.000000 0.000000 2.519057 1.947459 -0.719492 8.850652 19.605177 -12.557513 -45.656512 12.363167 80.135474 -2.231508 50.188756 6.096127 0.000000 0.000000 0.000000 
1.028415 88.587486 0.701927 0.000000 0.000000 0.000000 1.698027 -9.321700 -1.909314 -42.405438 2.423516 6.862480 35.590948 -0.938268 3.886816 5.094368 2.486032 -5.963289 0.000000 0.000000 0.000000 1.499620 -8.137736 -2.284468 -10.370515 -13.362277 -13.128681 30.042085 -10.759507 2.775585 -20.126546 -4.778379 16.873151 0.000000 0.000000 0.000000 1.556893 -8.971123 -1.860931 -0.192320 0.143806 -0.808275 21.920606 5.511216 0.630881 3.529499 1.550504 -0.030561 0.000000 0.000000 0.000000 1.695574 2.125561 -0.718584 -0.862361 2.123966 0.320973 0.000000 0.000000 0.000000 2.477521 2.005623 -0.772549 1.040282 -34.625934 5.972180 -25.629296 -18.106401 -68.912606 -0.784503 -46.318050 -8.813537 0.000000 0.000000 0.000000 2.500712 2.085735 -0.918952 8.788671 18.989377 -12.162578 -46.160874 12.633513 80.740595 -1.947581 49.937794 5.606416 0.000000 0.000000 0.000000 
1.211917 88.506279 1.228451 0.000000 0.000000 0.000000 1.892349 -8.751404 -1.862871 -42.553219 2.514148 6.362394 35.967971 -1.203297 4.044412 4.570686 2.526174 -5.742671 0.000000 0.000000 0.000000 1.715995 -7.537542 -2.228806 -9.485733 -13.296416 -13.118323 29.369639 -11.371476 2.676685 -20.410830 -5.038213 17.514622 0.000000 0.000000 0.000000 1.720036 -8.395903 -1.830481 -0.184437 0.148865 -0.797621 21.742970 5.506143 0.121101 3.497690 1.675191 -0.255717 0.000000 0.000000 0.000000 1.676246 2.239724 -0.904011 -0.892552 2.102224 0.392714 0.000000 0.000000 0.000000 2.371529 2.115856 -0.983490 0.997067 -35.148806 6.228291 -24.730573 -18.201199 -68.853354 -0.763859 -46.551004 -7.586943 0.000000 0.000000 0.000000 2.472820 2.201069 -1.119493 8.770103 18.664506 -11.898219 -46.494703 12.717174 81.238564 -1.663676 49.831322 5.189450 0.000000 0.000000 0.000000 
1.371988 88.420532 1.742424 0.000000 0.000000 0.000000 2.113435 -8.230149 -1.805309 -42.679151 2.557658 5.919313 36.323994 -1.397926 4.190398 4.018753 2.545415 -5.575853 0.000000 0.000000 0.000000 1.947627 -6.998947 -2.160623 -8.734287 -13.203727 -13.125465 28.843568 -11.924400 2.562021 -20.750391 -5.296972 18.041656 0.000000 0.000000 0.000000 1.919755 -7.899742 -1.789734 -0.180621 0.149108 -0.788880 21.577196 5.473691 -0.365391 3.456217 1.773128 -0.483990 0.000000 0.000000 0.000000 1.650884 2.324017 -1.085642 -0.913251 2.077273 0.478409 0.000000 0.000000 0.000000 2.260358 2.196453 -1.194666 0.980451 -35.640364 6.517342 -23.817998 -18.392736 -68.782484 -0.738216 -46.653467 -6.381672 0.000000 0.000000 0.000000 2.438057 2.288650 -1.313073 8.791316 18.609583 -11.769995 -46.654690 12.650138 81.598843 -1.394910 49.876589 4.855164 0.000000 0.000000 0.000000 
1.508016 88.339851 2.237587 0.000000 0.000000 0.000000 2.368896 -7.751843 -1.747615 -42.791296 2.557913 5.530118 36.655989 -1.521162 4.328052 3.474377 2.558838 -5.433976 0.000000 0.000000 0.000000 2.213692 -6.510406 -2.087652 -8.107583 -13.085540 -13.137807 28.424688 -12.416240 2.435557 -21.083764 -5.544298 18.468768 0.000000 0.000000 0.000000 2.168592 -7.471511 -1.741653 -0.183103 0.151940 -0.776399 21.431546 5.411265 -0.821708 3.410657 1.845669 -0.706737 0.000000 0.000000 0.000000 1.620437 2.379064 -1.259221 -0.926696 2.055231 0.569606 0.000000 0.000000 0.000000 2.151112 2.246815 -1.401403 0.988541 -36.114072 6.831264 -22.906043 -18.641610 -68.720132 -0.719636 -46.622072 -5.213016 0.000000 0.000000 0.000000 2.400623 2.349089 -1.495838 8.841310 18.769348 -11.770602 -46.670437 12.484869 81.849340 -1.145881 50.024408 4.598495 0.000000 0.000000 0.000000 
1.619674 88.270615 2.705181 0.000000 0.000000 0.000000 2.663433 -7.323918 -1.694590 -42.899827 2.517386 5.193307 36.952526 -1.580645 4.457075 2.968542 2.570981 -5.305421 0.000000 0.000000 0.000000 2.517775 -6.076573 -2.017431 -7.601111 -12.952859 -13.153298 28.066016 -12.840340 2.307027 -21.364261 -5.767076 18.816866 0.000000 0.000000 0.000000 2.468521 -7.114524 -1.687800 -0.187736 0.163590 -0.763190 21.317562 5.320173 -1.247436 3.362380 1.895460 -0.920812 0.000000 0.000000 0.000000 1.584989 2.409027 -1.425415 -0.936485 2.039119 0.661608 0.000000 0.000000 0.000000 2.048693 2.270033 -1.602095 1.014137 -36.586438 7.143567 -22.004011 -18.901449 -68.693637 -0.717047 -46.480021 -4.089558 0.000000 0.000000 0.000000 2.364139 2.386383 -1.665145 8.909489 19.087696 -11.878752 -46.581006 12.245471 82.042170 -0.914571 50.233135 4.398606 0.000000 0.000000 0.000000 
1.705100 88.217285 3.138828 0.000000 0.000000 0.000000 2.986893 -6.962986 -1.646103 -43.015602 2.451041 4.918061 37.214402 -1.590081 4.570846 2.527244 2.581517 -5.186122 0.000000 0.000000 0.000000 2.852666 -5.727157 -1.948482 -7.209531 -12.815775 -13.167073 27.735277 -13.190348 2.189845 -21.567740 -5.952875 19.117438 0.000000 0.000000 0.000000 2.816188 -6.838602 -1.628593 -0.182731 0.179472 -0.741537 21.237829 5.204867 -1.649040 3.316974 1.930542 -1.125466 0.000000 0.000000 0.000000 1.550172 2.422419 -1.586570 -0.946649 2.028946 0.748221 0.000000 0.000000 0.000000 1.957897 2.275066 -1.798026 1.048890 -37.066204 7.435713 -21.106681 -19.124651 -68.735083 -0.733878 -46.276447 -3.013022 0.000000 0.000000 0.000000 2.333841 2.409339 -1.824744 8.985429 19.492223 -12.068873 -46.427108 11.951740 82.229597 -0.692060 50.453125 4.232929 0.000000 0.000000 0.000000 
1.767848 88.179985 3.527279 0.000000 0.000000 0.000000 3.329998 -6.694035 -1.599619 -43.141729 2.377156 4.713064 37.443466 -1.556708 4.662404 2.162068 2.594028 -5.074197 0.000000 0.000000 0.000000 3.209178 -5.473711 -1.881319 -6.934091 -12.686661 -13.184502 27.425685 -13.466147 2.097502 -21.708030 -6.094553 19.379265 0.000000 0.000000 0.000000 3.193364 -6.659510 -1.566285 -0.179566 0.189532 -0.730677 21.189127 5.074657 -2.035117 3.274222 1.958981 -1.324479 0.000000 0.000000 0.000000 1.514810 2.427848 -1.747607 -0.959531 2.023035 0.825182 0.000000 0.000000 0.000000 1.881678 2.270474 -1.991230 1.088533 -37.543067 7.702490 -20.249025 -19.275432 -68.852904 -0.760918 -46.018560 -1.977048 0.000000 0.000000 0.000000 2.309928 2.425367 -1.978086 9.056090 19.931692 -12.303701 -46.237601 11.604312 82.407960 -0.479367 50.666336 4.087540 0.000000 0.000000 0.000000 
1.812661 88.154488 3.870770 0.000000 0.000000 0.000000 3.682645 -6.526908 -1.548602 -43.271550 2.316295 4.576636 37.632686 -1.490496 4.727906 1.873479 2.613573 -4.970604 0.000000 0.000000 0.000000 3.571176 -5.332004 -1.811788 -6.777523 -12.570547 -13.215427 27.154921 -13.671628 2.039880 -21.817024 -6.191900 19.596455 0.000000 0.000000 0.000000 3.579140 -6.571557 -1.501438 -0.176450 0.194141 -0.725087 21.161630 4.939377 -2.405536 3.232552 1.987484 -1.517829 0.000000 0.000000 0.000000 1.486012 2.433325 -1.909240 -0.975125 2.017550 0.888750 0.000000 0.000000 0.000000 1.823009 2.268118 -2.180077 1.126950 -38.002462 7.943612 -19.482585 -19.328768 -69.053035 -0.788570 -45.701052 -0.975026 0.000000 0.000000 0.000000 2.293373 2.441589 -2.128154 9.115452 20.361057 -12.561724 -46.037910 11.218695 82.554714 -0.280318 50.874042 3.954793 0.000000 0.000000 0.000000 
